<?xml version="1.0" standalone="no"?>
<!DOCTYPE svg PUBLIC "-//W3C//DTD SVG 20010904//EN"
 "http://www.w3.org/TR/2001/REC-SVG-20010904/DTD/svg10.dtd">
<svg version="1.0" xmlns="http://www.w3.org/2000/svg"
 width="260.000000pt" height="260.000000pt" viewBox="0 0 260.000000 260.000000"
 preserveAspectRatio="xMidYMid meet">
<metadata>
Created by potrace 1.11, written by Peter Selinger 2001-2013
</metadata>
<g transform="translate(0.000000,260.000000) scale(0.100000,-0.100000)"
fill="#000000" stroke="none">
<path d="M985 2593 c-11 -3 -24 -9 -29 -14 -6 -5 -18 -9 -27 -9 -9 0 -19 -7
-23 -15 -3 -8 -14 -15 -24 -15 -11 0 -25 -7 -32 -15 -7 -8 -18 -15 -25 -15 -7
0 -24 -9 -39 -21 -31 -24 -51 -20 -115 24 -24 17 -41 25 -38 19 4 -5 27 -23
51 -40 l45 -29 -60 -17 c-35 -10 -59 -22 -59 -30 0 -7 -25 -26 -56 -42 -30
-15 -58 -32 -61 -37 -3 -5 4 -4 16 2 23 13 29 -1 11 -29 -8 -12 -14 -13 -41
-3 -40 16 -50 10 -12 -6 27 -11 28 -14 27 -78 -1 -57 -5 -70 -25 -86 -13 -11
-23 -26 -21 -35 2 -8 -2 -26 -9 -39 -10 -18 -10 -29 -2 -42 8 -12 8 -32 1 -67
-13 -67 -1 -261 23 -362 10 -46 17 -87 14 -92 -3 -4 -55 -11 -117 -15 -62 -4
-118 -11 -124 -16 -12 -10 -84 -24 -177 -34 l-57 -6 0 -715 0 -714 697 0 c454
0 694 3 687 10 -11 11 -6 90 6 90 4 0 39 32 77 71 103 108 96 99 81 99 -7 0
-38 -23 -68 -50 -30 -27 -60 -50 -67 -50 -6 0 -18 -3 -27 -6 -11 -4 -16 -1
-16 11 0 14 -3 14 -29 -4 -30 -22 -76 -28 -85 -12 -3 5 -15 7 -25 4 -16 -4
-19 -1 -14 15 4 17 1 20 -17 15 -14 -4 -20 -12 -17 -22 3 -13 -4 -17 -36 -18
-31 -2 -40 2 -44 17 -3 11 -10 17 -16 13 -14 -9 -74 -6 -127 7 -50 12 -120 66
-120 93 0 10 -8 17 -19 17 -14 0 -19 6 -17 24 2 14 -5 31 -15 40 -16 14 -20
23 -19 51 1 19 -34 65 -48 65 -10 0 -25 9 -35 20 -9 11 -12 20 -6 20 5 0 8 4
4 9 -3 6 3 14 12 20 16 9 15 11 -7 12 -19 1 -20 2 -7 6 14 4 18 11 14 30 -6
33 36 52 63 28 9 -8 20 -12 23 -8 4 3 7 -1 7 -9 0 -9 -3 -18 -7 -21 -5 -2 -2
-2 4 -1 7 2 23 -10 35 -26 24 -33 38 -38 38 -15 0 8 -7 15 -16 15 -9 0 -14 7
-12 17 6 33 28 23 53 -26 14 -28 48 -74 75 -101 28 -28 50 -53 50 -56 0 -8
-73 7 -87 19 -9 6 -13 6 -13 -2 0 -14 37 -52 48 -49 4 2 9 -1 10 -7 11 -32 72
-52 72 -23 0 9 3 9 11 1 12 -12 17 -11 54 3 24 9 32 11 45 13 6 0 10 9 10 20
0 12 13 25 38 36 72 32 82 38 82 52 0 8 -4 11 -10 8 -5 -3 -25 -2 -43 3 -21 6
-40 6 -50 0 -21 -11 -22 -1 -2 18 8 9 23 13 32 10 16 -5 58 13 178 78 17 9 38
16 47 16 10 0 25 11 33 24 9 13 27 27 41 30 13 4 24 11 24 17 0 8 4 8 14 0 9
-7 17 -8 20 -2 3 5 14 7 24 4 14 -3 22 4 32 26 11 28 10 34 -14 65 -14 19 -26
39 -26 45 0 6 -5 11 -11 11 -5 0 -23 14 -39 32 -42 46 -47 28 -10 -36 27 -48
29 -57 16 -62 -9 -3 -16 -12 -16 -20 0 -8 -22 -26 -49 -42 -28 -15 -55 -37
-61 -50 -5 -13 -14 -21 -18 -18 -5 3 -16 -4 -25 -15 -10 -11 -22 -17 -28 -13
-6 3 -16 -2 -23 -11 -9 -12 -21 -16 -39 -13 -17 3 -28 0 -31 -9 -4 -9 -21 -13
-58 -12 -29 1 -63 -1 -74 -5 -14 -4 -27 -1 -37 9 -9 8 -22 12 -30 9 -17 -6
-47 21 -47 42 0 19 36 18 44 -2 5 -12 10 -13 19 -5 7 5 29 8 48 5 23 -4 55 2
99 19 l65 24 -80 2 c-44 1 -98 6 -120 11 -22 5 -67 10 -100 10 -90 0 -106 7
-103 42 1 17 8 33 15 35 7 3 13 9 13 15 0 5 -5 6 -10 3 -6 -3 -10 2 -10 11 0
16 1 16 20 -1 18 -17 20 -17 20 -1 0 9 -6 19 -14 22 -19 7 -14 64 11 136 22
63 18 70 -36 56 -20 -6 -35 -17 -38 -29 -3 -10 -14 -19 -24 -19 -11 0 -19 -7
-19 -17 0 -18 -59 -75 -70 -68 -4 2 -18 -7 -30 -20 -13 -14 -31 -25 -41 -25
-10 0 -21 -9 -24 -20 -8 -24 -14 -25 -44 -3 l-24 16 8 -39 c4 -21 10 -41 14
-44 11 -8 23 -41 28 -79 2 -19 9 -43 14 -54 8 -14 8 -22 -1 -27 -9 -5 -9 -9
-1 -14 6 -4 15 -4 21 -1 6 3 10 0 10 -8 0 -8 -7 -17 -14 -20 -18 -7 -58 90
-60 145 -1 20 -3 34 -7 33 -3 -2 -10 31 -16 73 -7 42 -19 92 -29 111 -14 28
-15 40 -6 65 9 24 8 43 -3 86 -22 80 -23 78 48 64 74 -16 253 -18 328 -4 61
12 94 38 110 89 6 20 17 43 24 51 8 8 17 32 20 53 5 24 11 34 15 27 4 -7 1
-28 -7 -48 -9 -22 -11 -38 -5 -44 6 -6 14 15 23 56 12 64 14 66 43 67 17 0 41
2 52 3 40 5 64 -11 64 -42 0 -40 67 -157 97 -171 31 -14 193 -27 193 -15 0 5
-39 10 -86 11 -60 1 -93 7 -111 18 -29 20 -57 78 -55 120 0 17 -2 23 -5 15 -4
-9 -11 2 -17 30 -11 43 -13 45 -56 52 -25 3 -71 7 -102 7 -32 1 -57 5 -55 10
4 13 -85 82 -99 77 -8 -3 -17 1 -21 9 -10 17 -118 35 -211 35 -70 0 -123 -19
-147 -54 -14 -18 -15 -6 -17 129 -5 267 -3 298 21 346 12 24 28 53 37 64 14
18 16 19 25 3 5 -9 24 -22 43 -28 32 -10 43 -7 168 54 122 60 141 66 228 74
52 6 134 22 182 36 47 14 97 26 110 26 13 0 58 1 101 4 64 3 81 1 101 -15 13
-10 26 -15 30 -12 3 3 6 1 6 -6 0 -7 10 -9 28 -5 19 4 23 3 13 -4 -11 -8 -6
-14 22 -27 20 -9 36 -20 35 -23 -1 -4 15 -42 35 -84 20 -42 37 -84 37 -93 0
-8 12 -34 27 -58 15 -24 19 -36 10 -28 -20 16 -21 11 -6 -23 18 -39 40 -22 33
25 -6 39 -6 39 26 39 24 0 31 -4 26 -15 -3 -8 -1 -15 5 -15 6 0 9 -7 5 -15 -3
-8 0 -15 5 -15 7 0 9 9 6 22 -4 12 -1 28 5 35 8 10 7 12 -5 7 -12 -4 -15 0
-14 15 1 14 5 17 11 11 20 -20 26 -9 22 43 -4 51 14 101 28 78 6 -9 20 -209
17 -236 -1 -5 -3 -37 -6 -70 -3 -33 -10 -75 -15 -94 -5 -19 -7 -38 -4 -42 2
-5 -1 -17 -7 -27 -7 -10 -9 -30 -6 -43 7 -28 5 -45 -5 -42 -13 5 -9 -6 11 -35
25 -35 34 -126 21 -205 -25 -157 -27 -180 -17 -207 15 -39 -7 -89 -47 -105
-17 -7 -34 -11 -38 -9 -6 4 -10 -16 -24 -133 -3 -27 -14 -76 -26 -111 -11 -35
-18 -64 -17 -66 2 -1 56 -10 119 -20 208 -32 535 -126 658 -190 l32 -17 0 502
c0 417 -2 500 -14 496 -7 -3 -32 6 -56 19 -45 25 -75 30 -85 14 -11 -17 -111
-4 -150 20 -19 12 -51 23 -70 25 -52 5 -75 15 -75 32 0 11 5 13 18 7 9 -4 40
-7 67 -5 28 1 102 -3 165 -9 100 -10 119 -9 145 4 30 16 30 16 5 16 -20 0 -22
2 -10 10 13 8 13 10 1 10 -11 0 -8 6 7 20 21 20 29 35 15 27 -11 -5 -37 25
-41 47 -3 15 -1 16 11 5 8 -8 13 -17 10 -21 -2 -5 0 -8 6 -8 21 0 19 18 -4 40
-26 25 -35 51 -11 31 11 -9 16 -9 22 0 4 8 3 9 -4 5 -23 -14 -11 20 18 52 l29
32 1 450 0 450 -728 0 c-542 0 -731 -3 -740 -12 -9 -9 -21 -9 -50 0 -40 12
-62 13 -97 5z m632 -219 c-3 -3 -12 -4 -19 -1 -8 3 -5 6 6 6 11 1 17 -2 13 -5z
m49 -2 c17 -11 13 -41 -5 -34 -11 4 -11 7 -2 10 8 3 7 8 -6 18 -18 14 -7 20
13 6z m69 -90 c-8 -9 -35 26 -35 46 0 9 8 4 21 -12 12 -15 18 -30 14 -34z m-5
-16 c0 -3 -4 -8 -10 -11 -5 -3 -10 -1 -10 4 0 6 5 11 10 11 6 0 10 -2 10 -4z
m100 -110 c0 -3 -15 4 -34 15 -24 14 -33 25 -29 36 5 12 12 9 34 -15 16 -17
29 -33 29 -36z m77 -122 c-6 -7 -37 25 -37 39 0 6 9 1 21 -12 12 -12 19 -24
16 -27z m13 -28 c0 -3 -4 -8 -10 -11 -5 -3 -10 -1 -10 4 0 6 5 11 10 11 6 0
10 -2 10 -4z m-50 -136 c0 -5 -2 -10 -4 -10 -3 0 -8 5 -11 10 -3 6 -1 10 4 10
6 0 11 -4 11 -10z m665 -350 c3 -5 1 -10 -4 -10 -6 0 -11 5 -11 10 0 6 2 10 4
10 3 0 8 -4 11 -10z m-398 -166 c0 -94 -1 -100 -7 -44 -3 36 -14 81 -22 100
-10 20 -14 47 -11 64 6 29 6 29 22 9 13 -16 17 -44 18 -129z m-1417 16 c0 -5
-13 -10 -28 -10 -15 0 -33 -5 -40 -12 -9 -9 -12 -7 -12 10 0 19 5 22 40 22 22
0 40 -4 40 -10z m-90 -15 c0 -8 -3 -15 -7 -16 -5 0 -19 -2 -33 -4 -32 -3 -41
2 -33 20 7 21 73 20 73 0z m-121 1 c-2 -2 -15 -9 -29 -15 -24 -11 -24 -11 -6
3 16 13 49 24 35 12z m-79 -26 c0 -5 -8 -10 -17 -10 -15 0 -16 2 -3 10 19 12
20 12 20 0z m155 -100 c18 -17 27 -19 50 -10 37 14 165 -2 165 -21 0 -9 -64
-29 -92 -29 -9 0 -19 -4 -23 -9 -17 -29 203 -24 231 4 9 8 23 15 31 15 9 0 25
8 36 18 19 16 19 16 12 -8 -17 -59 -30 -74 -75 -87 -52 -16 -239 -21 -320 -10
l-55 8 -3 64 c-4 88 4 101 43 65z m-62 -119 c-4 -6 -43 30 -43 40 0 5 10 -2
23 -14 13 -12 22 -24 20 -26z m625 -633 c-6 -18 -25 -20 -31 -3 -5 10 0 15 14
15 12 0 19 -5 17 -12z"/>
<path d="M1911 1744 c0 -11 3 -14 6 -6 3 7 2 16 -1 19 -3 4 -6 -2 -5 -13z"/>
<path d="M1822 1560 c0 -14 2 -19 5 -12 2 6 2 18 0 25 -3 6 -5 1 -5 -13z"/>
<path d="M1530 1524 c-166 -26 -210 -44 -210 -85 0 -13 -11 -25 -33 -34 -19
-8 -39 -21 -47 -29 -16 -20 -2 -21 19 -2 16 15 138 39 261 52 46 5 59 9 45 15
-15 5 -8 8 23 8 26 1 41 5 37 11 -4 6 6 10 22 11 15 0 22 3 15 6 -6 2 -10 9
-6 14 9 15 -84 40 -126 33z"/>
<path d="M1608 1433 c6 -2 18 -2 25 0 6 3 1 5 -13 5 -14 0 -19 -2 -12 -5z"/>
<path d="M1867 1414 c-22 -29 -17 -43 6 -19 9 8 21 15 27 15 13 0 9 22 -6 27
-5 1 -17 -9 -27 -23z"/>
<path d="M1833 1310 c1 -41 3 -62 5 -47 2 16 10 31 18 34 8 3 14 16 14 30 0
13 -4 22 -10 18 -5 -3 -6 -13 -3 -23 3 -9 3 -14 -2 -10 -4 4 -11 22 -15 40 -5
24 -7 12 -7 -42z"/>
<path d="M1445 1362 c-42 -4 -105 -33 -105 -48 0 -7 -2 -19 -5 -26 -4 -9 7
-17 35 -24 22 -6 40 -8 40 -4 0 4 33 8 73 9 39 1 96 8 126 16 30 8 58 12 63 9
4 -3 8 6 8 19 0 19 -7 27 -27 32 -36 10 -169 21 -208 17z m165 -51 c0 -5 -7
-11 -15 -15 -9 -3 -15 0 -15 9 0 8 7 15 15 15 8 0 15 -4 15 -9z"/>
<path d="M1735 1149 c-16 -5 -68 -16 -115 -23 -47 -8 -70 -14 -52 -15 38 -1
180 27 202 40 19 11 4 10 -35 -2z"/>
<path d="M940 830 c0 -5 3 -10 8 -10 4 -1 21 -12 37 -25 25 -21 28 -27 15 -35
-11 -8 -6 -9 19 -5 19 3 39 1 47 -6 11 -9 17 -9 28 0 7 6 21 9 30 5 9 -3 16
-1 16 4 0 6 -9 14 -20 17 -11 3 -20 11 -20 17 0 5 -6 8 -13 5 -8 -3 -40 6 -73
19 -66 27 -74 28 -74 14z"/>
<path d="M595 820 c3 -5 8 -10 11 -10 2 0 4 5 4 10 0 6 -5 10 -11 10 -5 0 -7
-4 -4 -10z"/>
<path d="M1764 455 c2 -22 13 -65 25 -95 35 -94 24 -217 -30 -322 -19 -38 -19
-38 1 -38 30 0 50 50 61 151 12 103 -5 226 -40 300 l-21 44 4 -40z"/>
<path d="M1942 394 c60 -83 84 -139 53 -128 -8 3 -13 9 -12 14 3 11 -56 110
-66 110 -4 0 -7 -3 -5 -7 43 -89 64 -146 60 -166 -1 -4 9 -34 22 -67 14 -33
23 -71 20 -85 -2 -14 0 -25 6 -25 7 0 9 -8 5 -20 -6 -19 -2 -20 89 -20 53 0
96 3 96 6 0 6 -23 53 -42 84 -4 8 -15 31 -24 50 -54 125 -148 256 -206 286
l-31 16 35 -48z"/>
<path d="M2350 326 c0 -8 -7 -17 -16 -20 -8 -3 -12 -11 -8 -17 3 -6 1 -15 -7
-19 -10 -7 -10 -14 -1 -35 10 -22 9 -29 -3 -42 -11 -10 -19 -12 -28 -5 -8 7
-18 5 -33 -7 -16 -13 -19 -22 -12 -40 5 -13 6 -32 3 -42 -4 -11 -3 -19 2 -19
9 0 33 -48 33 -67 0 -10 28 -13 120 -13 66 0 120 3 120 8 2 35 14 89 22 99 5
7 6 18 2 25 -5 7 -9 22 -9 33 0 11 -4 26 -8 33 -5 7 -4 12 3 12 6 0 18 6 25
14 12 12 12 16 1 25 -11 9 -16 9 -21 0 -6 -8 -10 -7 -17 2 -7 11 -8 9 -4 -4 3
-10 -1 -25 -9 -33 -8 -9 -15 -11 -15 -5 0 6 -4 11 -10 11 -5 0 -10 -6 -10 -13
0 -7 -9 -23 -21 -36 -11 -12 -18 -28 -15 -36 3 -9 0 -12 -8 -9 -8 3 -12 -3
-12 -18 1 -15 -6 -23 -19 -26 -18 -2 -19 -2 -2 8 9 6 15 16 12 21 -4 5 -11 6
-17 3 -7 -5 -9 2 -6 20 3 14 1 26 -3 26 -14 0 -11 57 4 72 18 19 20 77 3 94
-18 18 -36 18 -36 0z"/>
<path d="M2258 228 c5 -22 4 -22 24 1 15 18 14 19 -6 17 -17 -1 -22 -6 -18
-18z"/>
<path d="M2550 189 c0 -5 5 -7 10 -4 6 3 10 8 10 11 0 2 -4 4 -10 4 -5 0 -10
-5 -10 -11z"/>
<path d="M1933 158 c3 -9 2 -18 -3 -20 -9 -3 -14 -56 -11 -110 1 -24 5 -28 29
-28 28 0 29 2 27 43 -1 23 -6 51 -12 62 -6 11 -9 25 -6 31 2 6 -4 17 -14 25
-15 12 -16 12 -10 -3z"/>
<path d="M1892 140 c0 -14 2 -19 5 -12 2 6 2 18 0 25 -3 6 -5 1 -5 -13z"/>
<path d="M1881 54 c0 -11 3 -14 6 -6 3 7 2 16 -1 19 -3 4 -6 -2 -5 -13z"/>
<path d="M2565 45 c-3 -8 -7 -22 -10 -30 -3 -11 3 -15 21 -15 20 0 25 4 20 16
-3 9 -6 22 -6 30 0 19 -19 18 -25 -1z"/>
<path d="M1866 15 c-3 -8 -1 -15 4 -15 6 0 10 7 10 15 0 19 -6 19 -14 0z"/>
</g>
</svg>
